<?xml version="1.0" encoding="UTF-8" standalone="no"?>
<!-- Created with Inkscape (http://www.inkscape.org/) -->

<svg
   version="1.1"
   id="svg3490"
   xml:space="preserve"
   width="1538.4667"
   height="1342.8533"
   viewBox="0 0 1538.4667 1342.8533"
   sodipodi:docname="imagem.svg"
   inkscape:version="1.1.2 (0a00cf5339, 2022-02-04)"
   xmlns:inkscape="http://www.inkscape.org/namespaces/inkscape"
   xmlns:sodipodi="http://sodipodi.sourceforge.net/DTD/sodipodi-0.dtd"
   xmlns:xlink="http://www.w3.org/1999/xlink"
   xmlns="http://www.w3.org/2000/svg"
   xmlns:svg="http://www.w3.org/2000/svg"><defs
     id="defs3494"><linearGradient
       inkscape:collect="always"
       id="linearGradient9844"><stop
         style="stop-color:#004f00;stop-opacity:1"
         offset="0"
         id="stop9840" /><stop
         style="stop-color:#000000;stop-opacity:1"
         offset="1"
         id="stop9842" /></linearGradient><linearGradient
       inkscape:collect="always"
       xlink:href="#linearGradient9844"
       id="linearGradient9846"
       x1="4432.4819"
       y1="117.95263"
       x2="4415.4702"
       y2="1599.1899"
       gradientUnits="userSpaceOnUse"
       gradientTransform="translate(163.35,176.34)" /></defs><sodipodi:namedview
     id="namedview3492"
     pagecolor="#505050"
     bordercolor="#eeeeee"
     borderopacity="1"
     inkscape:pageshadow="0"
     inkscape:pageopacity="0"
     inkscape:pagecheckerboard="0"
     showgrid="false"
     inkscape:zoom="0.45254834"
     inkscape:cx="671.75144"
     inkscape:cy="328.14174"
     inkscape:window-width="1600"
     inkscape:window-height="832"
     inkscape:window-x="0"
     inkscape:window-y="0"
     inkscape:window-maximized="1"
     inkscape:current-layer="g3498" /><g
     id="g3496"
     inkscape:groupmode="layer"
     inkscape:label="ink_ext_XXXXXX"
     transform="matrix(1.3333333,0,0,-1.3333333,0,1342.8533)"><g
       id="g3498"
       transform="scale(0.1)"><path
         d="m 4441.44,1599.19 c 0,0 -3608.356,-25.9 -4170.395,-264.96 C -582.119,971.332 3936.3,925.742 3208.91,520.031 2481.53,114.34 4830.49,114.34 4986.49,281.391 c 156,167.051 -309.37,393.769 263.39,381.828 572.77,-11.93 3782.62,-334.109 3496.24,11.941 -286.38,346.039 1899.53,456.012 968.79,658.86 -954.51,208.04 -5273.47,265.17 -5273.47,265.17"
         style="mix-blend-mode:normal;fill:url(#linearGradient9846);fill-opacity:1;fill-rule:nonzero;stroke:none"
         id="path3500" /><path
         d="m 3437.9388,5000.0155 c -731.23,-414.59 -1791.85,-1192.17 -2860.94098,-568.04 -1069.09704,624.13 -395.82004,1747.48 361.371,1881.7 757.20998,134.23 -840.355038,1457.33 -142.03,2185.09 698.32998,727.77 1656.83998,-763.8 2170.96998,-402.84 514.13,360.96 1429.48,-2552.27 470.63,-3095.91"
         style="fill:#e8e8e8;fill-opacity:1;fill-rule:nonzero;stroke:none"
         id="path3502" /><path
         d="m 6456.3816,9854.1002 c 1088.02,-627.7002 701.94,-1422.9502 1415.74,-1754.0802 713.81,-331.13 995.09,357.01 1907.29,161.09 1151.6804,-247.37 754.4804,-1764.24 -459.22,-3276.97 -755.97,-942.25 -1852.11,-597.53 -2393.76,498.47 -541.65,1096.01 -487.95,2008.84 -2027.25,2778.5 -1539.3,769.65 316.22,2308.94 1557.2,1592.9902"
         style="fill:#e8e8e8;fill-opacity:1;fill-rule:nonzero;stroke:none"
         id="path3504" /><path
         d="m 8326.0904,3725.8287 c 929.32,457.17 1467.72,1959.39 2171.2596,1825.51 703.54,-133.89 1428.94,-2085.48 226.65,-2155.01 -1202.3296,-69.53 -1146.3296,-1224.68 -1968.7096,-933.08 -822.38,291.6 -813.41,1073.58 -429.2,1262.58"
         style="fill:#e8e8e8;fill-opacity:1;fill-rule:nonzero;stroke:none"
         id="path3506" /><path
         d="m 7807.3769,3963.1525 c 0,-95.56 -77.47,-173.03 -173.03,-173.03 -95.55,0 -173.02,77.47 -173.02,173.03 0,95.55 77.47,173.01 173.02,173.01 95.56,0 173.03,-77.46 173.03,-173.01"
         style="fill:#ffff00;fill-opacity:1;fill-rule:nonzero;stroke:none"
         id="path3510" /><path
         d="m 8699.3967,9178.5301 c 0,-95.56 -77.47,-173.03 -173.03,-173.03 -95.55,0 -173.02,77.47 -173.02,173.03 0,95.55 77.47,173.01 173.02,173.01 95.56,0 173.03,-77.46 173.03,-173.01"
         style="fill:#ffff00;fill-opacity:1;fill-rule:nonzero;stroke:none"
         id="path3510-70" /><path
         d="m 6408.5959,3027.1936 c 0,-95.56 -77.47,-173.03 -173.03,-173.03 -95.55,0 -173.02,77.47 -173.02,173.03 0,95.55 77.47,173.01 173.02,173.01 95.56,0 173.03,-77.46 173.03,-173.01"
         style="fill:#008000;fill-opacity:1;fill-rule:nonzero;stroke:none"
         id="path3510-7" /><path
         d="m 2976.2021,1856.8072 c 0,-95.56 -77.47,-173.03 -173.03,-173.03 -95.55,0 -173.02,77.47 -173.02,173.03 0,95.55 77.47,173.01 173.02,173.01 95.56,0 173.03,-77.46 173.03,-173.01"
         style="fill:#ffff00;fill-opacity:1;fill-rule:nonzero;stroke:none"
         id="path3510-5" /><path
         d="m 2723.8986,2887.2904 c 0,-95.56 -77.47,-173.03 -173.03,-173.03 -95.55,0 -173.02,77.4699 -173.02,173.03 0,95.55 77.47,173.01 173.02,173.01 95.56,0 173.03,-77.46 173.03,-173.01"
         style="fill:#008000;fill-opacity:1;fill-rule:nonzero;stroke:none"
         id="path3510-3" /><path
         d="m 1765.0569,9202.2171 c 0,-95.56 -77.47,-173.03 -173.03,-173.03 -95.55,0 -173.02,77.4699 -173.02,173.03 0,95.55 77.47,173.01 173.02,173.01 95.56,0 173.03,-77.46 173.03,-173.01"
         style="fill:#008000;fill-opacity:1;fill-rule:nonzero;stroke:none"
         id="path3510-3-9" /><path
         d="m 3421.9251,9347.6664 c 0,-95.56 -77.47,-173.03 -173.03,-173.03 -95.55,0 -173.02,77.4699 -173.02,173.03 0,95.55 77.47,173.01 173.02,173.01 95.56,0 173.03,-77.46 173.03,-173.01"
         style="fill:#ffff00;fill-opacity:1;fill-rule:nonzero;stroke:none"
         id="path3510-3-2"
         inkscape:transform-center-x="-189.42636"
         inkscape:transform-center-y="639.00211" /><path
         d="m 11200.303,7917.1853 c 0,-95.56 -77.47,-173.03 -173.03,-173.03 -95.55,0 -173.02,77.4699 -173.02,173.03 0,95.55 77.47,173.01 173.02,173.01 95.56,0 173.03,-77.46 173.03,-173.01"
         style="fill:#008000;fill-opacity:1;fill-rule:nonzero;stroke:none"
         id="path3510-3-2-2"
         inkscape:transform-center-x="-189.42636"
         inkscape:transform-center-y="639.00211" /><path
         d="M 3495.79,1157.68 H 3388.4 v 424.11 c 0,39.26 31.82,71.1 71.09,71.1 h 263.02 V 1545.5 h -155.63 c -39.26,0 -71.09,-31.84 -71.09,-71.11 v -316.71"
         style="fill:#ffd648;fill-opacity:1;fill-rule:nonzero;stroke:none"
         id="path3528" /><path
         d="m 8269.64,6748 285.31,285.32 c 10.48,10.47 24.68,16.36 39.49,16.36 h 1336.87 c 49.76,0 74.69,-60.17 39.49,-95.36 l -395.55,-395.54 c -21.81,-21.82 -21.81,-57.18 0,-79 l 364.23,-364.23 c 35.19,-35.18 10.26,-95.35 -39.5,-95.35 H 8491.82 c -14.82,0 -29.02,5.89 -39.5,16.37 l -194.57,194.56 c -10.84,10.85 -16.75,25.68 -16.34,41.01 l 11.88,437.88 c 0.39,14.28 6.24,27.88 16.35,37.98"
         style="fill:#004700;fill-opacity:1;fill-rule:nonzero;stroke:none"
         id="path3530" /><path
         d="m 6956.23,6485.57 c 0,-83.23 -3.94,-165.56 -11.63,-246.64 -3.4,-35.98 -7.52,-71.78 -12.36,-107.39 -17.17,-126.19 -43.49,-249.7 -78.39,-369.44 -3.23,-11.45 -6.62,-22.91 -10.2,-34.36 C 6647.48,5083.2 6206.81,4545.16 5629.74,4221.19 5404.94,4095.01 5267.83,3855.16 5267.83,3597.23 V 3174.29 H 3573.35 v 358.87 c 0,268.13 -148.38,516.2 -387.51,637.91 -62.82,31.87 -124.03,66.41 -183.82,103.28 -742.09,456.78 -1236.81,1276.73 -1236.45,2212.3 0.54,1431.37 1199.4,2613.23 2630.77,2594.08 1370.51,-18.44 2484.54,-1098.99 2556.13,-2455.9 2.51,-46.18 3.76,-92.54 3.76,-139.26"
         style="fill:#008000;fill-opacity:1;fill-rule:nonzero;stroke:none"
         id="path3532" /><path
         d="m 6853.85,5762.1 c -3.23,-11.45 -6.62,-22.91 -10.2,-34.36 C 6647.48,5083.2 6206.81,4545.16 5629.74,4221.19 5404.94,4095.01 5267.83,3855.16 5267.83,3597.23 V 3321.6 c -124.76,-9.84 -231.79,-17.72 -244.68,-18.97 -31.32,-3.05 -387.86,128.15 -387.86,128.15 0,0 342.71,20.11 381.96,208.7 38.86,186.74 238.59,590.84 703.96,829.67 477.31,244.96 911.05,774.6 911.05,774.6 l -141.4,203.69 271.53,228.21 45.46,111.33 46,-24.88"
         style="fill:#006300;fill-opacity:1;fill-rule:nonzero;stroke:none"
         id="path3534" /><path
         d="m 3871.73,3430.78 c 0,0 -98.27,-153.4 -188.48,-256.49 h -109.9 v 358.87 c 0,268.13 -148.38,516.2 -387.51,637.91 -62.82,31.87 -124.03,66.41 -183.82,103.28 0,0 548.96,-209.6 653.12,-452.9 61.08,-142.65 -13.24,-390.67 216.59,-390.67"
         style="fill:#005400;fill-opacity:1;fill-rule:nonzero;stroke:none"
         id="path3536" /><path
         d="m 6490.86,6485.57 c 0,-120.64 -10.02,-238.95 -29.53,-354.03 C 6292.9,5123.65 5416.57,4355.61 4360.9,4355.61 c -1176.31,0 -2129.96,953.65 -2129.96,2129.96 0,1176.32 953.65,2129.97 2129.96,2129.97 1129.6,0 2053.71,-879.37 2125.31,-1990.71 3.22,-46 4.65,-92.54 4.65,-139.26"
         style="fill:#ffff00;fill-opacity:1;fill-rule:nonzero;stroke:none"
         id="path3538" /><path
         d="m 5921.32,6485.57 c 0,-121.71 -13.96,-240.38 -40.28,-354.03 -160.37,-691.26 -780.03,-1206.39 -1520.14,-1206.39 -861.83,0 -1560.42,698.59 -1560.42,1560.42 0,861.83 698.59,1560.42 1560.42,1560.42 814.94,0 1483.82,-624.66 1554.16,-1421.16 4.11,-45.82 6.26,-92.36 6.26,-139.26"
         style="fill:#008000;fill-opacity:1;fill-rule:nonzero;stroke:none"
         id="path3540" /><path
         d="m 5353.04,6485.57 c 0,-124.75 -23.1,-244.14 -65.34,-354.03 -142.29,-373.2 -503.67,-638.1 -926.8,-638.1 -547.88,0 -992.13,444.25 -992.13,992.13 0,547.89 444.25,992.13 992.13,992.13 500.63,0 914.63,-370.86 982.29,-852.87 6.62,-45.47 9.85,-92 9.85,-139.26"
         style="fill:#ffff00;fill-opacity:1;fill-rule:nonzero;stroke:none"
         id="path3542" /><path
         d="m 5321.53,3277.38 v -39.19 c 0,-84.67 -68.73,-153.4 -153.4,-153.4 H 3655.14 c -84.65,0 -153.38,68.73 -153.38,153.4 v 39.19 c 0,8.6 0.71,16.83 2.14,25.07 11.82,72.84 75.18,128.33 151.24,128.33 h 1512.99 c 76.08,0 139.44,-55.49 151.25,-128.33 1.44,-8.24 2.15,-16.47 2.15,-25.07"
         style="fill:#f7c22d;fill-opacity:1;fill-rule:nonzero;stroke:none"
         id="path3544" /><path
         d="m 5319.38,3302.45 c -11.99,-72.68 -75.17,-128.16 -151.25,-128.16 H 3655.14 c -76.06,0 -139.24,55.48 -151.24,128.16 11.82,72.84 75.18,128.33 151.24,128.33 h 1512.99 c 76.08,0 139.44,-55.49 151.25,-128.33"
         style="fill:#ffd648;fill-opacity:1;fill-rule:nonzero;stroke:none"
         id="path3546" /><path
         d="m 3655.14,3040.05 v 0 c 0,-24.72 20.03,-44.75 44.75,-44.75 h 1423.45 c 24.71,0 44.74,20.03 44.74,44.75 v 0 c 0,24.71 -20.03,44.74 -44.74,44.74 H 3699.89 c -24.72,0 -44.75,-20.03 -44.75,-44.74"
         style="fill:#eeeff3;fill-opacity:1;fill-rule:nonzero;stroke:none"
         id="path3548" /><path
         d="m 3655.14,2950.56 v 0 c 0,-24.72 20.03,-44.75 44.75,-44.75 h 1423.45 c 24.71,0 44.74,20.03 44.74,44.75 v 0 c 0,24.7 -20.03,44.74 -44.74,44.74 H 3699.89 c -24.72,0 -44.75,-20.04 -44.75,-44.74"
         style="fill:#eeeff3;fill-opacity:1;fill-rule:nonzero;stroke:none"
         id="path3550" /><path
         d="m 5168.13,2850.5 v -220.51 c 0,-30.43 -24.87,-55.31 -55.48,-55.31 h -61.57 c -157.16,0 -284.41,-127.26 -284.41,-284.42 v -54.76 c 0,-64.8 -52.63,-117.24 -117.24,-117.24 h -457.67 c -64.8,0 -117.24,52.44 -117.24,117.24 v 54.76 c 0,157.16 -127.27,284.42 -284.41,284.42 h -79.65 c -30.43,0 -55.32,24.88 -55.32,55.31 v 220.51 c 0,30.43 24.89,55.31 55.32,55.31 h 1402.19 c 30.61,0 55.48,-24.88 55.48,-55.31"
         style="fill:#f7c22d;fill-opacity:1;fill-rule:nonzero;stroke:none"
         id="path3552" /><path
         d="m 5112.65,2897.22 v -204.23 c 0,-28.28 -22.91,-51.37 -51.37,-51.37 h -57.09 c -145.52,0 -263.65,-117.95 -263.65,-263.47 v -50.84 c 0,-59.96 -48.51,-108.64 -108.47,-108.64 h -424.21 c -59.96,0 -108.64,48.68 -108.64,108.64 v 50.84 c 0,145.52 -117.95,263.47 -263.66,263.47 h -73.74 c -28.28,0 -51.36,23.09 -51.36,51.37 v 204.23 c 0,2.86 0.17,5.72 0.71,8.59 h 1400.76 c 0.54,-2.87 0.72,-5.73 0.72,-8.59"
         style="fill:#ffd648;fill-opacity:1;fill-rule:nonzero;stroke:none"
         id="path3554" /><path
         d="m 3834.62,1754.32 h 1165.92 c 61.92,0 112.11,-50.2 112.11,-112.11 v -86.03 c 0,-61.91 -50.19,-112.11 -112.11,-112.11 H 3834.62 c -61.92,0 -112.11,50.2 -112.11,112.11 v 86.03 c 0,61.91 50.19,112.11 112.11,112.11"
         style="fill:#008000;fill-opacity:1;fill-rule:nonzero;stroke:none"
         id="path3556" /><path
         d="M 5112.65,1444.01 V 1157.63 H 3655.14 v 286.38 h 1457.51"
         style="fill:#ffd648;fill-opacity:1;fill-rule:nonzero;stroke:none"
         id="path3558" /><path
         d="m 5096,1444.01 c -19.51,-32.22 -54.95,-53.7 -95.4,-53.7 H 3834.68 c -40.45,0 -76.08,21.48 -95.59,53.7 H 5096"
         style="fill:#008000;fill-opacity:1;fill-rule:nonzero;stroke:none"
         id="path3560" /><path
         d="m 3940.28,1599.19 c 0,-37.89 -30.72,-68.62 -68.61,-68.62 -37.9,0 -68.61,30.73 -68.61,68.62 0,37.9 30.71,68.61 68.61,68.61 37.89,0 68.61,-30.71 68.61,-68.61"
         style="fill:#febb46;fill-opacity:1;fill-rule:nonzero;stroke:none"
         id="path3562" /><path
         d="m 3914.31,1599.19 c 0,-23.55 -19.1,-42.64 -42.64,-42.64 -23.56,0 -42.65,19.09 -42.65,42.64 0,23.55 19.09,42.63 42.65,42.63 23.54,0 42.64,-19.08 42.64,-42.63"
         style="fill:#ffd648;fill-opacity:1;fill-rule:nonzero;stroke:none"
         id="path3564" /><path
         d="m 4441.44,1599.19 c 0,-37.89 -30.72,-68.62 -68.61,-68.62 -37.89,0 -68.61,30.73 -68.61,68.62 0,37.9 30.72,68.61 68.61,68.61 37.89,0 68.61,-30.71 68.61,-68.61"
         style="fill:#febb46;fill-opacity:1;fill-rule:nonzero;stroke:none"
         id="path3566" /><path
         d="m 4415.47,1599.19 c 0,-23.55 -19.08,-42.64 -42.64,-42.64 -23.54,0 -42.64,19.09 -42.64,42.64 0,23.55 19.1,42.63 42.64,42.63 23.56,0 42.64,-19.08 42.64,-42.63"
         style="fill:#ffd648;fill-opacity:1;fill-rule:nonzero;stroke:none"
         id="path3568" /><path
         d="m 4960.51,1599.19 c 0,-37.89 -30.72,-68.62 -68.61,-68.62 -37.9,0 -68.61,30.73 -68.61,68.62 0,37.9 30.71,68.61 68.61,68.61 37.89,0 68.61,-30.71 68.61,-68.61"
         style="fill:#febb46;fill-opacity:1;fill-rule:nonzero;stroke:none"
         id="path3570" /><path
         d="m 4934.54,1599.19 c 0,-23.55 -19.09,-42.64 -42.64,-42.64 -23.55,0 -42.64,19.09 -42.64,42.64 0,23.55 19.09,42.63 42.64,42.63 23.55,0 42.64,-19.08 42.64,-42.63"
         style="fill:#ffd648;fill-opacity:1;fill-rule:nonzero;stroke:none"
         id="path3572" /><path
         d="m 6956.23,6485.57 c 0,-120.1 -8.23,-238.41 -23.99,-354.03 h -470.91 c 19.51,115.08 29.53,233.39 29.53,354.03 0,46.72 -1.43,93.26 -4.65,139.26 h 466.26 c 2.51,-46.18 3.76,-92.54 3.76,-139.26"
         style="fill:#000000;fill-opacity:1;fill-rule:nonzero;stroke:none"
         id="path3574" /><path
         d="m 6490.86,6485.57 c 0,-120.64 -10.02,-238.95 -29.53,-354.03 h -580.29 c 26.32,113.65 40.28,232.32 40.28,354.03 0,46.9 -2.15,93.44 -6.26,139.26 h 571.15 c 3.22,-46 4.65,-92.54 4.65,-139.26"
         style="fill:#1a1a1a;fill-opacity:1;fill-rule:nonzero;stroke:none"
         id="path3576" /><path
         d="m 5921.32,6485.57 c 0,-121.71 -13.96,-240.38 -40.28,-354.03 H 5287.7 c 42.24,109.89 65.34,229.28 65.34,354.03 0,47.26 -3.23,93.79 -9.85,139.26 h 571.87 c 4.11,-45.82 6.26,-92.36 6.26,-139.26"
         style="fill:#000000;fill-opacity:1;fill-rule:nonzero;stroke:none"
         id="path3578" /><path
         d="m 5353.04,6485.57 c 0,-124.75 -23.1,-244.14 -65.34,-354.03 h -926.8 c -136.21,0 -246.64,110.43 -246.64,246.64 0,136.21 110.43,246.65 246.64,246.65 h 982.29 c 6.62,-45.47 9.85,-92 9.85,-139.26"
         style="fill:#000000;fill-opacity:1;fill-rule:nonzero;stroke:none"
         id="path3580" /><path
         d="m 8406.03,6485.57 c 0,-246.64 -152.13,-246.64 -152.13,-246.64 h -3893 c -136.21,0 -246.64,110.43 -246.64,246.64 0,136.22 110.43,246.65 246.64,246.65 h 3893 c 0,0 152.13,0 152.13,-246.65"
         style="fill:#008000;fill-opacity:1;fill-rule:nonzero;stroke:none"
         id="path3582" /><path
         d="m 988.02617,4262.67 c 0,0 -146.164,-891.49 -343.055,-1043.64 0,0 32.82,-193.89 152.144,-202.85 0,0 346.02003,1108.82 190.911,1246.49"
         style="fill:#1431a3;fill-opacity:1;fill-rule:nonzero;stroke:none"
         id="path3584" /><path
         d="m 1712.9392,4319.81 c 0,0 304.28,-698.05 337.09,-712.97 0,0 -32.81,-119.32 -77.56,-122.3 -44.74,-2.99 -259.53,835.27 -259.53,835.27"
         style="fill:#01008a;fill-opacity:1;fill-rule:nonzero;stroke:none"
         id="path3586" /><path
         d="m 1712.9392,4319.81 c 0,0 253.57,-787.55 322.18,-859.14 0,0 2.98,-131.26 -110.38,-152.14 l -211.8,1011.28"
         style="fill:#1431a3;fill-opacity:1;fill-rule:nonzero;stroke:none"
         id="path3588" /><path
         d="m 803.08417,1688.68 c 0,0 164.07,-217.76 184.949,-193.9 20.88303,23.87 29.83603,53.7 35.80103,29.83 5.969,-23.86 11.93,-247.6 77.559,-286.38 65.629,-38.78 92.48,-44.75 104.41,-83.52 11.934,-38.78 -352.00803,-41.77 -402.71903,-8.96 -50.719,32.82 -170.039,381.85 -161.094,402.73 8.95,20.88 161.094,140.2 161.094,140.2"
         style="fill:#008000;fill-opacity:1;fill-rule:nonzero;stroke:none"
         id="path3590" /><path
         d="m 803.08417,1688.68 c 0,0 199.30103,727.89 224.94203,805.45 25.636,77.57 144.964,256.55 153.914,325.17 8.949,68.61 343.059,-65.63 343.059,-65.63 0,0 -65.63,-241.64 -116.34,-355 -50.71,-113.36 -400.34,-875.66 -400.34,-875.66 0,0 -5.559,-87.89 -84.52003,-67.01 -78.953,20.88 -120.715,232.68 -120.715,232.68"
         style="fill:#502d16;fill-opacity:1;fill-rule:nonzero;stroke:none"
         id="path3592" /><path
         d="m 1486.2192,1626.04 c 0,0 -32.81,1252.91 -32.81,1302.14 0,49.22 313.22,107.39 353.5,67.12 40.27,-40.27 -63.86,-1376.7 -59.9,-1391.99 3.96,-15.3 -3.87,-92.49 -7.22,-101.45 -3.36,-8.94 -158.85,-33.55 -167.81,-15.66 -8.95,17.9 -85.76,139.84 -85.76,139.84"
         style="fill:#502d16;fill-opacity:1;fill-rule:nonzero;stroke:none"
         id="path3594" /><path
         d="m 1486.2192,1626.04 c 0,0 205.84,-150.65 234.18,-104.41 28.34,46.24 25.35,108.89 35.79,104.41 10.44,-4.48 12.68,-134.24 173.77,-194.65 161.09,-60.41 176.75,-120.82 102.92,-134.24 -73.83,-13.43 -626.46,31.33 -637.64,73.83 -11.19,42.51 90.98,255.06 90.98,255.06"
         style="fill:#008000;fill-opacity:1;fill-rule:nonzero;stroke:none"
         id="path3596" /><path
         d="m 836.50217,4689.73 c 0,0 -380.152,147.64 -139.664,554.11 240.484,406.46 284.488,384.83 286.723,615.27 2.238,230.45 143.18703,243.88 210.31203,308.76 67.121,64.88 161.086,264.01 375.876,185.7 214.78,-78.31 226.78,-219.26 216.31,-264.01 0,0 90.21,-24.61 47.7,-170.04 -42.51,-145.42 -187.94,-478.79 -255.06,-512.35 -67.13,-33.56 -742.19703,-717.44 -742.19703,-717.44"
         style="fill:#000000;fill-opacity:1;fill-rule:nonzero;stroke:none"
         id="path3598" /><path
         d="m 1612.2592,5501.14 c 0,0 431.06,285.63 437.77,310.25 6.72,24.6 41.02,530.99 27.6,551.13 -13.43,20.13 -76.07,55.93 -80.55,96.2 -4.47,40.28 26.85,38.04 20.14,85.02 -6.71,46.99 -54.75,136.78 -13.42,152.15 41.31,15.36 248.34,-4.48 281.9,-107.4 33.56,-102.92 -40.27,-217.02 -38.03,-246.11 2.23,-29.08 46.98,-604.89 29.08,-633.97 -17.89,-29.09 -545.91,-466.81 -563.81,-464.56 -17.9,2.23 -100.68,257.29 -100.68,257.29"
         style="fill:#784421;fill-opacity:1;fill-rule:nonzero;stroke:none"
         id="path3600" /><path
         d="m 1532.5192,5573.81 c 0,0 -47.79,-23.45 -53.7,-71.24 -1.97,-15.04 -24.16,-17.9 -53.7,-14.68 -63.89,6.81 -161.086,41.53 -161.086,41.53 l 43.136,178.99 177.38,-62.47 25.59,-9.13 22.38,-63"
         style="fill:#502d16;fill-opacity:1;fill-rule:nonzero;stroke:none"
         id="path3602" /><path
         d="m 1942.5792,2956.46 c -110.26,-23.81 -74.46,-110.26 -74.46,-110.26 -34.9,-30.96 -73.02,-42.95 -110.43,-43.67 -100.24,-2.5 -194.03,74.46 -199.58,79.11 -0.17,0.36 -0.35,0.36 -0.35,0.36 v -131.38 c -211.75,-226.6 -316.097,-65.5 -378.745,-11.81 -62.645,53.7 -92.539,-77.68 -92.539,-77.68 -253.62103,-17.54 -256.48803,170.04 -256.48803,178.62 0,0.19 0,0.37 0,0.37 -110.434,-11.81 -107.391,155.18 -107.391,155.18 220.691,247.54 265.437,1267.41 265.437,1267.41 32.75803,97.91 683.19603,289.79 724.90603,57.1 41.7,-232.68 235.72,-1023.27 265.44,-1047.08 29.89,-23.81 74.64,-292.28 -35.8,-316.27"
         style="fill:#01008a;fill-opacity:1;fill-rule:nonzero;stroke:none"
         id="path3604" /><path
         d="m 1738.1792,4946.45 c -25.78,-45.46 -50.66,-90.03 -45.29,-107.56 3.05,-9.67 15.76,-70.71 30.43,-148.57 0.18,-0.17 0.18,-0.36 0.18,-0.54 29.17,-154.46 65.15,-374.26 45.28,-390.02 -153.21,-123.14 -488.99,-96.65 -679.617,-65.14 -81.078,13.24 -135.85103,27.56 -139.07403,31.5 -6.621,7.87 9.664,361.02 24.344,654.91 10.558,211.39 20.402,392.17 20.402,392.17 0,0 -11.273,29.71 40.09403,52.8 51.547,23.27 483.271,159.84 577.421,135.14 93.79,-24.7 194.56,-413.83 170.04,-472.18 -9.67,-22.55 -26.67,-51.9 -43.32,-81.07 0,0 -0.36,-0.54 -0.89,-1.44"
         style="fill:#ffd648;fill-opacity:1;fill-rule:nonzero;stroke:none"
         id="path3606" /><path
         d="m 1692.8892,4838.89 c 3.05,-9.67 15.76,-70.71 30.43,-148.57 -17.18,92.72 -151.42,137.29 -162.52,137.46 86.09,-6.44 167.71,105.07 177.38,118.67 -25.78,-45.46 -50.66,-90.03 -45.29,-107.56"
         style="fill:#ffbb4a;fill-opacity:1;fill-rule:nonzero;stroke:none"
         id="path3608" /><path
         d="m 1532.5192,5573.81 c 0,0 -47.79,-23.45 -53.7,-71.24 -1.97,-15.04 -24.16,-17.9 -53.7,-14.68 9.49,22.38 20.77,50.83 25.96,69.99 9.85,35.8 -23.63,39.73 -23.63,39.73 0,0 31.33,26.67 57.1,48.33 l 25.59,-9.13 22.38,-63"
         style="fill:#784421;fill-opacity:1;fill-rule:nonzero;stroke:none"
         id="path3610" /><path
         d="m 1624.5192,4597.78 c 0,0 -5.55,-31.85 -36.87,-67.65 -24.88,-28.46 -354.045,-219.62 -498.487,-295.51 -81.078,13.24 -135.85103,27.56 -139.07403,31.5 -6.621,7.87 9.664,361.02 24.344,654.91 l 118.67203,156.8 c 0,0 -58.711,-610.35 -65.153,-623.78 -6.265,-13.42 596.568,143.73 596.568,143.73"
         style="fill:#ffbb4a;fill-opacity:1;fill-rule:nonzero;stroke:none"
         id="path3612" /><path
         d="m 1228.1742,5076.04 484.765,98.44 -100.68,-577.24 -469.105,-116.33 85.02,595.13"
         style="fill:#8dbec6;fill-opacity:1;fill-rule:nonzero;stroke:none"
         id="path3614" /><path
         d="m 1612.3492,4583.83 c -44.75,-38.13 -61.58,-76.08 -105.78,-102.92 -44.21,-26.86 -178.46,-71.6 -182.93,-73.75 -4.48,-2.33 -467.69903,-241.63 -539.29303,-232.69 -71.594,8.96 -96.117,107.4 -84.844,165.39 11.102,58.35 203.512,861.48 219.082,903.89 15.754,42.61 44.215,99.34 83.77003,98.98 39.375,-0.53 124.394,-92.18 81.98,-329.33 -16.113,-89.5 -34.902,-180.78 -51.91,-260.07 -28.102,-131.03 -50.83203,-229.29 -46.53903,-232.15 1.613,-1.07 21.83603,1.96 51.73003,7.33 94.688,16.65 286.024,55.32 286.024,55.32 0,0 54.41,111.86 104.35,114.01 50.12,2.32 50.12,-28.99 63.36,-26.86 13.6,2.34 129.95,74.29 145.52,67.31 15.57,-6.81 20.22,-116.35 -24.52,-154.46"
         style="fill:#784421;fill-opacity:1;fill-rule:nonzero;stroke:none"
         id="path3616" /><path
         d="m 1228.1742,5429.54 c 0,0 4.996,165.44 49.485,156.55 44.49,-8.88 108.02,-63.74 209.75,-56.45 0,0 24.16,12.68 18.2,-42.97 -5.96,-55.64 -8.95,-79.5 -8.95,-79.5 0,0 -99.93,-105.9 -268.485,22.37"
         style="fill:#ffffff;fill-opacity:1;fill-rule:nonzero;stroke:none"
         id="path3618" /><path
         d="m 1712.9392,5957.56 c 0,0 -26.85,-268.48 -61.16,-320.69 -34.3,-52.2 -32.81,-59.66 -59.66,-65.63 -26.85,-5.96 -170.04,13.43 -219.26,53.7 -49.22,40.27 -168.544,102.91 -168.544,102.91 l -25.36,229.71 229.704,65.63 c 0,0 299.8,28.34 304.28,-65.63"
         style="fill:#502d16;fill-opacity:1;fill-rule:nonzero;stroke:none"
         id="path3620" /><path
         d="m 1335.5692,5866.57 c 0,0 26.1,47.36 103.29,21.63 77.19,-25.73 162.21,-70.48 253.94,0 l 20.14,69.36 -132,23.49 -245.37,-34.68 v -79.8"
         style="fill:#502d16;fill-opacity:1;fill-rule:nonzero;stroke:none"
         id="path3622" /><path
         d="m 1335.5692,5866.57 c 0,0 -31.32,59.66 -77.559,28.34 -46.242,-31.32 -25.356,-149.15 52.209,-144.68 l -11.47,-76.84 -130.231,-6.69 -25.364,332.62 356.495,146.18 259.53,-35.8 -46.24,-152.14 c 0,0 -20.88,-114.85 -171.53,-82.04 -150.65,32.82 -183.46,47.73 -205.84,-8.95"
         style="fill:#000000;fill-opacity:1;fill-rule:nonzero;stroke:none"
         id="path3624" /><path
         d="m 1264.0332,5863.59 c 0,0 48.416,2.2 36.116,-64.9 0,0 1.61,45.88 -36.116,64.9"
         style="fill:#784421;fill-opacity:1;fill-rule:nonzero;stroke:none"
         id="path3626" /><path
         d="m 1037.6152,4528.51 v -0.17 l -143.55003,-34.02 c 0,0 95.043,101.5 133.88603,264.19 l 4.473,-5.18 c -28.102,-131.03 -50.83203,-229.29 -46.53903,-232.15 1.613,-1.07 21.83603,1.96 51.73003,7.33"
         style="fill:#4f5cd2;fill-opacity:1;fill-rule:nonzero;stroke:none"
         id="path3628" /><path
         d="m 1063.7482,3606.19 c -7.34,-47.79 -15.574,-93.79 -24.523,-137.82 11.992,74.81 22.191,126.9 24.523,137.82"
         style="fill:#01008a;fill-opacity:1;fill-rule:nonzero;stroke:none"
         id="path3630" /><path
         d="m 1086.4752,2661.13 c -253.62103,-17.54 -256.48803,170.04 -256.48803,178.62 0,0.19 0,0.37 0,0.37 0,0 130.664,239.84 209.23803,628.25 -37.762,-236.62 -91.28503,-700.56 47.25,-807.24"
         style="fill:#01016d;fill-opacity:1;fill-rule:nonzero;stroke:none"
         id="path3632" /><path
         d="m 1757.6892,2802.53 c -100.24,-2.5 -194.03,74.46 -199.58,79.11 -0.17,0.36 -0.35,0.36 -0.35,0.36 l -14.86,832.3 c 0,0 71.59,-850.91 214.79,-911.77"
         style="fill:#01016d;fill-opacity:1;fill-rule:nonzero;stroke:none"
         id="path3634" /><path
         d="m 6944.6,6238.93 c -3.4,-35.98 -7.52,-71.78 -12.36,-107.39 -18.78,-138.36 -48.68,-273.32 -88.59,-403.8 -48.15,18.79 -81.26,42.06 -81.26,42.06 l 70.88,469.13 h 111.33"
         style="fill:#000000;fill-opacity:1;fill-rule:nonzero;stroke:none"
         id="path3636" /><path
         d="m 6121.42,6238.93 c -8.58,-255.24 -14.13,-533.38 -14.13,-533.38 -149.81,-138.73 -312.87,-52.99 -312.87,-52.99 0,0 -16.65,291.75 -32.22,586.37 h 359.22"
         style="fill:#000000;fill-opacity:1;fill-rule:nonzero;stroke:none"
         id="path3638" /><path
         d="m 7326.91,6732.22 c -21.83,-97.01 -78.39,-296.58 -136.02,-493.29 h -357.62 l 62.82,416.5 c 0,0 -723.11,10.75 -746.74,0 -10.74,-5.01 -20.58,-202.79 -27.93,-416.5 H 5762.2 c -10.02,188.29 -19.51,377.84 -23.8,493.29 h 1588.51"
         style="fill:#000000;fill-opacity:1;fill-rule:nonzero;stroke:none"
         id="path3640" /><path
         d="m 6097.09,7265.97 c 0,0 -425.27,119.92 -492.58,211.73 -51.55,70.53 376.23,987.84 397.18,986.23 20.94,-1.79 34.9,-501.7 34.9,-501.7 0,0 -30.25,-88.24 -58.17,-176.3 -0.54,-1.44 -0.9,-2.87 -1.44,-4.3 -25.41,-80.72 -48.68,-160.2 -44.38,-170.76 4.12,-10.38 26.84,-29.17 49.94,-46.54 26.67,-20.04 54.05,-37.76 54.05,-37.76 62.65,-15.21 60.5,-260.6 60.5,-260.6"
         style="fill:#ffffff;fill-opacity:1;fill-rule:nonzero;stroke:none"
         id="path3642" /><path
         d="m 6996.5,7284.22 c 0,0 36.52,280.83 67.12,297.66 0,0 33.83,16.46 61.57,37.05 l 0.37,0.17 c 6.98,5.2 13.6,10.75 19.15,16.29 l 0.53,0.54 c 10.75,10.74 17.19,21.48 14.68,30.97 -4.12,15.21 -20.94,77.14 -38.3,140.51 -20.76,76.42 -42.25,154.82 -42.25,154.82 0,0 29,499.02 55.85,492.22 26.85,-6.81 290.85,-751.76 308.75,-872.57 17.9,-120.82 -447.47,-297.66 -447.47,-297.66"
         style="fill:#ffffff;fill-opacity:1;fill-rule:nonzero;stroke:none"
         id="path3644" /><path
         d="m 5754.77,5563.78 c 0,0 -250.58,-521.3 -228.21,-545.91 22.37,-24.61 536.96,264 552.63,304.28 15.66,40.27 -120.82,353.5 -120.82,353.5 l -203.6,-111.87"
         style="fill:#008000;fill-opacity:1;fill-rule:nonzero;stroke:none"
         id="path3646" /><path
         d="m 7063.62,5662.22 c 0,0 125.29,-554.86 107.39,-588.41 -17.9,-33.57 -510.11,344.54 -503.39,391.53 6.7,46.98 230.44,252.82 230.44,252.82 l 165.56,-55.94"
         style="fill:#008000;fill-opacity:1;fill-rule:nonzero;stroke:none"
         id="path3648" /><path
         d="m 5991.19,8341.09 c 0,0 -11.93,120.81 22.37,134.24 34.31,13.42 487.75,122.38 496.69,128.31 8.95,5.93 158.86,11.9 189.43,11.9 30.57,0 425.09,-135.74 435.54,-161.09 10.44,-25.36 -116.34,-1166.41 -143.19,-1184.31 -26.85,-17.9 -859.14,-26.85 -868.1,0 -8.94,26.85 -130.86,1035.16 -132.74,1070.95"
         style="fill:#ffd648;fill-opacity:1;fill-rule:nonzero;stroke:none"
         id="path3650" /><path
         d="m 6417.77,8752.76 -14.91,-232.68 c 0,0 59.66,-76.08 167.05,-76.08 107.39,0 167.06,134.25 167.06,134.25 l -46.24,256.55 -272.96,-82.04"
         style="fill:#a05a2c;fill-opacity:1;fill-rule:nonzero;stroke:none"
         id="path3652" /><path
         d="m 6408.21,8603.64 c 0,0 46.86,-116.38 161.7,-159.64 0,0 -74.42,-90 -108.88,-150.64 0,0 -120.54,205.91 -52.82,310.28"
         style="fill:#ffffff;fill-opacity:1;fill-rule:nonzero;stroke:none"
         id="path3654" /><path
         d="m 6730.25,8615.54 c 0,0 -75.32,-132.75 -160.34,-171.54 0,0 120.82,-68.61 134.25,-150.64 0,0 87.98,250.58 26.09,322.18"
         style="fill:#ffffff;fill-opacity:1;fill-rule:nonzero;stroke:none"
         id="path3656" /><path
         d="m 6148.5,7523.7 -51.41,375.88 h 926.26 c 0,0 -62.65,-402.72 -67.12,-400.48 -4.47,2.23 -807.73,24.6 -807.73,24.6"
         style="fill:#ffbb4a;fill-opacity:1;fill-rule:nonzero;stroke:none"
         id="path3658" /><path
         d="m 5989.18,7728.05 h 1108.01 l -105.16,-457.91 h -894.94 l -107.91,457.91"
         style="fill:#ff911e;fill-opacity:1;fill-rule:nonzero;stroke:none"
         id="path3660" /><path
         d="m 7103.9,5626.43 c -143.2,-64.8 -310.9,58.17 -310.9,58.17 l 151.6,1047.62 c 0,0 -820.67,12.89 -847.51,0 -26.85,-12.71 -47.79,-1123.69 -47.79,-1123.69 -170.04,-164.13 -354.94,-62.65 -354.94,-62.65 0,0 -74.63,1357.27 -65.69,1408.11 8.96,50.65 489.36,294.07 489.36,294.07 h 869.17 c 0,0 449.25,-285.12 457.31,-356.72 7.88,-71.6 -340.61,-1264.91 -340.61,-1264.91"
         style="fill:#01008a;fill-opacity:1;fill-rule:nonzero;stroke:none"
         id="path3662" /><path
         d="m 6498.32,7226.14 c 0,0 -16.41,0 73.09,0 v 0 h -73.09"
         style="fill:#284cbf;fill-opacity:1;fill-rule:nonzero;stroke:none"
         id="path3664"
         sodipodi:nodetypes="cccc" /><path
         d="m 6097.09,7265.93 v 0 c 0,-21.98 17.81,-39.79 39.78,-39.79 h 816.04 c 20.99,0 38,17.01 38,38 v 1.79 c 0,2.33 -1.89,4.21 -4.21,4.21 h -885.4 c -2.33,0 -4.21,-1.88 -4.21,-4.21"
         style="fill:#febb46;fill-opacity:1;fill-rule:nonzero;stroke:none"
         id="path3666" /><path
         d="m 6425.68,8718.59 c 0,0 67.8,-147.8 144.23,-126.55 76.45,21.26 121.19,184.58 121.19,184.58 l -212.36,4.48 -53.06,-62.51"
         style="fill:#c87137;fill-opacity:1;fill-rule:nonzero;stroke:none"
         id="path3668" /><path
         d="m 6370.05,9183.82 c 0,0 24.61,111.87 100.67,78.31 76.08,-33.56 211.54,-245.63 275.2,-227.72 63.65,17.9 259.54,171.79 250.58,198.64 -8.94,26.84 -76.06,80.54 -107.39,114.1 -31.32,33.56 -100.57,230.45 -178.93,241.64 -78.36,11.18 -243.93,-26.85 -270.78,-71.6 -26.84,-44.75 -26.84,-44.75 -26.84,-44.75 0,0 -75.54,29.09 -122.8,20.14 -47.24,-8.95 -143.45,-122.44 -141.22,-157.42 2.24,-35 132.55,-301.93 132.55,-301.93 l 29.44,-27.95 c 0,0 27.16,189.73 38.86,194.21 11.7,4.47 20.66,-15.67 20.66,-15.67"
         style="fill:#000000;fill-opacity:1;fill-rule:nonzero;stroke:none"
         id="path3670" /><path
         d="m 6300.68,9080.9 c 0,0 31.33,-275.19 67.13,-315.46 35.79,-40.28 136.48,-100.68 192.41,-98.44 55.93,2.23 138.71,96.2 149.91,132 11.18,35.8 53.69,337.84 44.74,378.11 -8.95,40.27 -362.45,187.94 -362.45,187.94 l -91.74,-284.15"
         style="fill:#a05a2c;fill-opacity:1;fill-rule:nonzero;stroke:none"
         id="path3672" /><path
         d="m 6318.58,9015.99 c 0,0 -26.84,26.88 -73.83,15.69 -46.98,-11.18 29.76,-147.81 83.12,-133.19 53.36,14.61 -9.29,117.5 -9.29,117.5"
         style="fill:#a05a2c;fill-opacity:1;fill-rule:nonzero;stroke:none"
         id="path3674" /><path
         d="m 6734.74,9034.41 c 0,0 20.13,33.07 51.45,12.94 31.33,-20.14 -33.55,-170.14 -64.88,-149.95 -31.32,20.18 13.43,137.01 13.43,137.01"
         style="fill:#a05a2c;fill-opacity:1;fill-rule:nonzero;stroke:none"
         id="path3676" /><path
         d="m 5982.54,7564.33 -122.61,72.68 c 0,0 79.82,35.97 117.05,144.62 -25.41,-80.72 -48.68,-160.2 -44.38,-170.76 4.12,-10.38 26.84,-29.17 49.94,-46.54"
         style="fill:#cbcbcb;fill-opacity:1;fill-rule:nonzero;stroke:none"
         id="path3678" /><path
         d="m 7145.24,7635.93 c 10.75,10.74 17.19,21.48 14.68,30.97 -4.12,15.21 -20.94,77.14 -38.3,140.51 39.2,-90.93 98.8,-108.11 98.8,-108.11 l -75.18,-63.37"
         style="fill:#cbcbcb;fill-opacity:1;fill-rule:nonzero;stroke:none"
         id="path3680" /><path
         d="m 6969.3,6924.99 c -3.76,-25.06 -24.7,-192.77 -24.7,-192.77 0,0 -820.67,12.89 -847.51,0 0,0 -4.47,175.77 -40.1,223.02 7.88,-5.55 263.29,-187.76 362.28,-183.28 100.59,4.47 143.19,28.99 143.19,28.99 0,0 109.54,-42.42 163.23,-46.89 52.8,-4.48 235.73,142.83 243.61,170.93"
         style="fill:#00005b;fill-opacity:1;fill-rule:nonzero;stroke:none"
         id="path3682" /><path
         d="m 6969.83,6928.04 c 0,-0.19 0,-0.72 -0.17,-1.8 0,-0.35 -0.19,-0.71 -0.36,-1.25 0.17,1.61 0.36,2.5 0.53,3.05"
         style="fill:#01008a;fill-opacity:1;fill-rule:nonzero;stroke:none"
         id="path3684" /><path
         d="m 5482.56,1749.84 56.68,26.85 199.87,-701.04 -56.68,-44.74 -199.87,718.93"
         style="fill:#284cbf;fill-opacity:1;fill-rule:nonzero;stroke:none"
         id="path3686" /><path
         d="m 5739.11,1075.65 h 626.46 v -44.74 h -683.14 l 56.68,44.74"
         style="fill:#284cbf;fill-opacity:1;fill-rule:nonzero;stroke:none"
         id="path3688" /><path
         d="m 6497.56,1382.35 42.53,-167.99 403.13,-167.8 135.27,196.9 -184.91,192.41 c 0,0 -288.65,-28.73 -396.02,-53.52"
         style="fill:#ffbb48;fill-opacity:1;fill-rule:nonzero;stroke:none"
         id="path3690" /><path
         d="m 7041.25,1684.21 -29.17,-185.61 c 0,0 -66.94,-64.97 -152.14,13.24 -4.3,3.94 -8.78,7.7 -13.25,11.28 0,0 0,0 -0.18,0 -0.17,0.18 -0.71,0.54 -1.43,1.08 -1.43,1.25 -2.86,2.32 -4.48,3.03 -1.07,0.73 -2.14,1.62 -3.22,2.51 -85.37,58.53 -205.12,48.69 -205.12,48.69 l 125.83,79.47 144.45,91.29 138.71,-64.98"
         style="fill:#ffb380;fill-opacity:1;fill-rule:nonzero;stroke:none"
         id="path3692" /><path
         d="m 8315.47,1216.16 v -0.18 c -47.26,-104.71 -90.57,-180.6 -90.57,-180.6 0,0 -749.6,-51.548 -1020.23,-11.1 -27.21,4.12 -51.91,10.91 -74.1,19.87 -198.5,80.18 -205.66,333.81 -205.66,333.81 0,0 127.62,245.94 209.78,289.61 82.33,43.84 559.87,-3.59 626.99,-7.88 67.12,-4.65 630.94,102.74 642.21,102.74 81.08,-115.99 -9.31,-371.22 -88.42,-546.27"
         style="fill:#ffffff;fill-opacity:1;fill-rule:nonzero;stroke:none"
         id="path3694" /><path
         d="m 6836.72,1449.29 c 0,0 177.68,255.5 204.53,254.17 26.84,-1.35 114.11,-46.1 114.11,-46.1 0,0 -118.58,-261.77 -185.7,-277.43 -67.12,-15.66 -132.94,69.36 -132.94,69.36"
         style="fill:#febb46;fill-opacity:1;fill-rule:nonzero;stroke:none"
         id="path3696" /><path
         d="m 6420.99,1366.5 c 0,0 96.72,27.47 105.67,11.51 8.94,-15.98 13.43,-107.71 13.43,-107.71 l -119.1,96.2"
         style="fill:#6675ff;fill-opacity:1;fill-rule:nonzero;stroke:none"
         id="path3698" /><path
         d="m 6293.84,1378.01 c 0,0 -210.18,66.8 -248.22,69.04 -38.02,2.24 -210.3,-114.1 -237.15,-176.75 -26.85,-62.65 26.85,-2.23 102.92,0 76.07,2.24 129.76,-51.46 252.82,-29.09 123.05,22.38 123.05,22.38 123.05,22.38 l 6.58,114.42"
         style="fill:#ffb380;fill-opacity:1;fill-rule:nonzero;stroke:none"
         id="path3700" /><path
         d="m 6135.13,1214.36 c 0,0 36.4,138.72 131.19,172.28 94.77,33.56 163.42,-27.2 163.42,-27.2 0,0 -205.12,-57.82 -211.83,-218.9 l -82.78,73.82"
         style="fill:#1631a4;fill-opacity:1;fill-rule:nonzero;stroke:none"
         id="path3702" /><path
         d="m 8315.47,1216.16 v -0.18 c -47.26,-104.71 -90.57,-180.6 -90.57,-180.6 0,0 -749.6,-51.548 -1020.23,-11.1 -27.21,4.12 -51.91,10.91 -74.1,19.87 110.61,104.53 284.23,254.16 284.23,254.16 0,0 30.61,-134.41 18.79,-189.73 -11.99,-55.3 792.56,89.86 864.7,245.39 l 17.18,-137.81"
         style="fill:#cbcbcb;fill-opacity:1;fill-rule:nonzero;stroke:none"
         id="path3704" /><path
         d="m 6217.91,1140.54 c 0,0 600.43,-422.868 725.31,-420.63 124.87,2.242 448.55,388.67 448.55,388.67 0,0 119.22,285.67 -146.18,386.2 -98.43,37.29 -331.87,-356.48 -345.29,-354.24 -13.43,2.23 -470.56,218.9 -470.56,218.9 0,0 -196.18,31.68 -211.83,-218.9"
         style="fill:#ffd648;fill-opacity:1;fill-rule:nonzero;stroke:none"
         id="path3706" /><path
         d="m 6837.38,1529.74 c -85.37,58.53 -205.12,48.69 -205.12,48.69 l 125.83,79.47 29.89,5.37 c -2.33,-2.51 -44.21,-28.28 -10.74,-73.03 23.09,-30.79 47.26,-51.01 60.14,-60.5"
         style="fill:#ff9955;fill-opacity:1;fill-rule:nonzero;stroke:none"
         id="path3708" /><path
         d="m 6421.5,2039.95 c 0,0 22.38,-340.08 67.12,-400.49 44.75,-60.41 71.6,-89.49 89.49,-87.25 17.9,2.23 335.61,181.23 335.61,181.23 0,0 33.56,288.61 29.09,295.32 -4.48,6.72 -472.09,107.4 -478.8,102.92 -6.71,-4.47 -48.04,-22.27 -42.51,-91.73"
         style="fill:#ffb380;fill-opacity:1;fill-rule:nonzero;stroke:none"
         id="path3710" /><path
         d="m 6439.4,2042.19 c 0,0 75.8,10.73 114.68,-39.89 38.88,-50.61 173.94,-49.61 173.94,-49.61 0,0 20.13,202.48 -72.71,210.32 -92.85,7.83 -222.62,-23.5 -222.62,-23.5 l 6.71,-97.32"
         style="fill:#cbcb00;fill-opacity:1;fill-rule:nonzero;stroke:none"
         id="path3712" /><path
         d="m 6439.4,2042.19 c 0,0 24.61,51.46 64.89,24.61 40.27,-26.85 85.02,-170.04 194.64,-165.57 109.63,4.48 109.63,4.48 109.63,4.48 0,0 44.75,76.07 71.6,29.08 26.85,-46.98 -11.19,-170.04 -76.07,-172.27 l 56.17,-59.06 82.96,32.21 c 0,0 -0.41,82.79 24.2,96.2 24.61,13.43 178.99,143.2 76.07,342.32 -102.92,199.13 -396.01,172.27 -514.59,132.01 -118.58,-40.27 -129.77,-123.06 -129.77,-123.06 0,0 -109.63,8.95 -105.16,-85.02 4.48,-93.97 140.32,-200.94 140.32,-200.94 l 5.11,145.01"
         style="fill:#e9ba00;fill-opacity:0.99925876;fill-rule:nonzero;stroke:none;opacity:1"
         id="path3714" /><path
         d="m 6872.33,1893.41 c 0,0 -48.1,10.07 -58.17,-60.41 0,0 24.61,50.34 58.17,60.41"
         style="fill:#d38d5f;fill-opacity:1;fill-rule:nonzero;stroke:none"
         id="path3716" /><path
         d="m 9879.71,2544.84 c 0,0 14.92,265.51 68.61,277.43 53.68,11.94 703.98,-134.23 701.08,-158.1 -3,-23.86 -393.3,-128.84 -447.5,-190.92 -54.2,-62.08 -62.7,-131.26 -62.7,-131.26 l -259.49,202.85"
         style="fill:#008000;fill-opacity:1;fill-rule:nonzero;stroke:none"
         id="path3718" /><path
         d="m 10201.8,2347.9 -59.6,-906.76 h -477.16 l 196.71,1130.5 c 0,0 63.9,34.9 157.15,-19.16 l 0.2,-0.18 c 53.3,-30.96 116.5,-91.28 182.7,-204.4"
         style="fill:#1532a4;fill-opacity:1;fill-rule:nonzero;stroke:none"
         id="path3720" /><path
         d="m 10201.8,2363.1 -59.6,-906.74 h -296.74 c -7.7,6.26 -11.99,10.02 -11.99,10.02 0,0 174.53,87.16 219.23,160.02 44.8,73.02 88.1,703.95 86.5,730.81 -1.4,26.3 -115.3,202.79 -120.1,210.3 53.3,-30.96 116.5,-91.28 182.7,-204.41"
         style="fill:#002a93;fill-opacity:1;fill-rule:nonzero;stroke:none"
         id="path3722" /><path
         d="m 10757.2,1884.43 c 0,0 85.2,251.77 136.2,249.14 51,-2.63 638.8,-211.7 645,-246.05 6.3,-34.35 -423.3,-33.8 -443,-60.7 -19.8,-26.9 -116.3,-131.51 -125.1,-130 -8.8,1.5 -213.1,187.61 -213.1,187.61"
         style="fill:#008000;fill-opacity:1;fill-rule:nonzero;stroke:none"
         id="path3724" /><path
         d="m 11013.4,1721.44 c 0,0 -325.3,-230.89 -606.3,-427.43 0,0 -0.1,-0.17 -0.7,-0.35 -207.8,-145.34 -391.1,-271.71 -400.6,-271.71 -22.52,0 -1689.08,0 -1689.08,0 l 37.59,144.09 150.17,576.34 c 257.92,7.7 504.21,-196.88 504.21,-196.88 0,0 817.27,-92.54 882.95,-101.49 65.69,-8.95 826.36,468.41 826.36,468.41 235.6,29.89 295.4,-190.98 295.4,-190.98"
         style="fill:#01008a;fill-opacity:1;fill-rule:nonzero;stroke:none"
         id="path3726" /><path
         d="m 10406.4,1293.66 c -207.8,-145.34 -391.1,-271.71 -400.6,-271.71 -22.52,0 -1689.08,0 -1689.08,0 l 37.59,144.09 c 66.4,147.31 127.44,273.68 140.33,275.1 0,0 -85.56,-283.51 -31.87,-319.32 53.7,-35.79 1458.76,-29.7 1569.03,0 107,29.01 358.9,163.42 374.6,171.84"
         style="fill:#00005b;fill-opacity:1;fill-rule:nonzero;stroke:none"
         id="path3728" /><path
         d="m 8373.23,1757.47 c 0,0 -116.69,-688.06 -161.64,-722.97 0,0 -2.44,-41.098 98.24,-25.7 0,0 357.55,669.38 176.75,780.56 -50.94,31.33 -113.35,-31.89 -113.35,-31.89"
         style="fill:#febb46;fill-opacity:1;fill-rule:nonzero;stroke:none"
         id="path3730" /><path
         d="m 3740.12,164.52 c 0,0 -413.63,516.921 -125.44,880.68 0,0 307.32,-296.751 125.44,-880.68"
         style="fill:#ffbc47;fill-opacity:1;fill-rule:nonzero;stroke:none"
         id="path3732" /><path
         d="m 3740.12,164.52 c 0,0 -160.81,492 200.16,647.121 0,0 109.8,-351.571 -200.16,-647.121"
         style="fill:#ffd648;fill-opacity:1;fill-rule:nonzero;stroke:none"
         id="path3734" /><path
         d="m 7870.91,582.012 c 0,0 -323.26,403.988 -98.04,688.288 0,0 240.19,-231.92 98.04,-688.288"
         style="fill:#ffbc47;fill-opacity:1;fill-rule:nonzero;stroke:none"
         id="path3736" /><path
         d="m 7870.91,582.012 c 0,0 -125.68,384.519 156.42,505.748 0,0 85.82,-274.76 -156.42,-505.748"
         style="fill:#ffd648;fill-opacity:1;fill-rule:nonzero;stroke:none"
         id="path3738" /></g></g></svg>
